{
	"asset":{
		"generator":"Khronos glTF Blender I/O v3.5.30",
		"version":"2.0"
	},
	"scene":0,
	"scenes":[
		{
			"name":"Scene",
			"nodes":[
				0,
				1,
				2,
				3,
				4,
				5,
				6,
				7,
				8,
				9,
				10,
				11,
				12,
				13,
				14,
				15,
				16
			]
		}
	],
	"nodes":[
		{
			"mesh":0,
			"name":"Base",
			"scale":[
				1.1995986700057983,
				1,
				1
			],
			"translation":[
				-2.1083388328552246,
				0.8478617072105408,
				0.7794468402862549
			]
		},
		{
			"mesh":1,
			"name":"Screen",
			"scale":[
				1.1596473455429077,
				9.80648136138916,
				1.5860645771026611
			],
			"translation":[
				-1.902436375617981,
				0.14639198780059814,
				0.044398702681064606
			]
		},
		{
			"mesh":2,
			"name":"Vertical Btn",
			"translation":[
				0.7198134064674377,
				0.5345058441162109,
				1.2101057767868042
			]
		},
		{
			"mesh":3,
			"name":"Vertical Btn.001",
			"rotation":[
				0,
				-0.6973406672477722,
				0,
				0.71673983335495
			],
			"translation":[
				0.14438572525978088,
				0.5404148697853088,
				1.7269197702407837
			]
		},
		{
			"mesh":4,
			"name":"BTN B",
			"scale":[
				0.2522507607936859,
				0.2522507607936859,
				0.2522507607936859
			],
			"translation":[
				-0.03851018100976944,
				0.39553141593933105,
				-1.0658472776412964
			]
		},
		{
			"mesh":5,
			"name":"BTN A",
			"scale":[
				0.2522507607936859,
				0.2522507607936859,
				0.2522507607936859
			],
			"translation":[
				0.4032018780708313,
				0.39553141593933105,
				-0.5808031558990479
			]
		},
		{
			"mesh":6,
			"name":"Plane",
			"translation":[
				-1.9081841707229614,
				-0.6102940440177917,
				-0.19343744218349457
			]
		},
		{
			"mesh":7,
			"name":"Plane.001",
			"scale":[
				6.965539455413818,
				6.965539455413818,
				6.965539455413818
			],
			"translation":[
				-1.4650907516479492,
				-1.0280029773712158,
				0.15187162160873413
			]
		},
		{
			"mesh":8,
			"name":"Inner Screen",
			"translation":[
				-1.9216707944869995,
				0.21240924298763275,
				0.027937613427639008
			]
		},
		{
			"mesh":9,
			"name":"Base.001",
			"scale":[
				1.1995986700057983,
				1,
				1
			],
			"translation":[
				-0.4390246868133545,
				-1.862870216369629,
				8.044866561889648
			]
		},
		{
			"mesh":10,
			"name":"Screen.001",
			"scale":[
				1.1596473455429077,
				9.80648136138916,
				1.5860645771026611
			],
			"translation":[
				-0.23312222957611084,
				-2.564340114593506,
				7.309818267822266
			]
		},
		{
			"mesh":11,
			"name":"Vertical Btn.002",
			"translation":[
				2.389127492904663,
				-2.1762261390686035,
				8.47552490234375
			]
		},
		{
			"mesh":12,
			"name":"Vertical Btn.003",
			"rotation":[
				0,
				-0.6973406672477722,
				0,
				0.71673983335495
			],
			"translation":[
				1.8136998414993286,
				-2.1703171730041504,
				8.992339134216309
			]
		},
		{
			"mesh":13,
			"name":"BTN B.001",
			"scale":[
				0.2522507607936859,
				0.2522507607936859,
				0.2522507607936859
			],
			"translation":[
				1.6308039426803589,
				-2.3152005672454834,
				6.1995720863342285
			]
		},
		{
			"mesh":14,
			"name":"BTN A.001",
			"scale":[
				0.2522507607936859,
				0.2522507607936859,
				0.2522507607936859
			],
			"translation":[
				2.0725159645080566,
				-2.3152005672454834,
				6.6846160888671875
			]
		},
		{
			"mesh":15,
			"name":"Plane.002",
			"translation":[
				-0.2388700246810913,
				-3.321026086807251,
				7.071981906890869
			]
		},
		{
			"mesh":16,
			"name":"Inner Screen.001",
			"translation":[
				-0.2523566484451294,
				-2.4983227252960205,
				7.293356895446777
			]
		}
	],
	"materials":[
		{
			"doubleSided":true,
			"name":"Material",
			"pbrMetallicRoughness":{
				"baseColorFactor":[
					0.4019773006439209,
					0.40197739005088806,
					0.4019777476787567,
					1
				],
				"metallicFactor":0,
				"roughnessFactor":0.5
			}
		},
		{
			"doubleSided":true,
			"name":"Material.002",
			"pbrMetallicRoughness":{
				"baseColorFactor":[
					0.17242811620235443,
					0.17643947899341583,
					0.18165501952171326,
					1
				],
				"metallicFactor":0,
				"roughnessFactor":0.5
			}
		},
		{
			"doubleSided":true,
			"name":"Material.001",
			"pbrMetallicRoughness":{
				"baseColorFactor":[
					0.020288532599806786,
					0.022173859179019928,
					0.02217388153076172,
					1
				],
				"metallicFactor":0,
				"roughnessFactor":0.5
			}
		},
		{
			"doubleSided":true,
			"name":"Material.003",
			"pbrMetallicRoughness":{
				"baseColorFactor":[
					0.020288532599806786,
					0.022173859179019928,
					0.02217388153076172,
					1
				],
				"metallicFactor":0,
				"roughnessFactor":0.5
			}
		},
		{
			"doubleSided":true,
			"name":"Material.004",
			"pbrMetallicRoughness":{
				"baseColorFactor":[
					0.3231433033943176,
					0.015996178612113,
					0.09530748426914215,
					1
				],
				"metallicFactor":0,
				"roughnessFactor":0.5
			}
		},
		{
			"doubleSided":true,
			"name":"Material.005",
			"pbrMetallicRoughness":{
				"baseColorFactor":[
					0.3231433033943176,
					0.015996178612113,
					0.09530748426914215,
					1
				],
				"metallicFactor":0,
				"roughnessFactor":0.5
			}
		},
		{
			"doubleSided":true,
			"name":"Material.007",
			"pbrMetallicRoughness":{
				"baseColorFactor":[
					0.013634714297950268,
					0.2048749178647995,
					0.11645787954330444,
					1
				],
				"metallicFactor":0,
				"roughnessFactor":0.5
			}
		},
		{
			"doubleSided":true,
			"name":"Material.006",
			"pbrMetallicRoughness":{
				"baseColorFactor":[
					0.004776921588927507,
					0.03954622521996498,
					0.004776963964104652,
					1
				],
				"metallicFactor":0
			}
		}
	],
	"meshes":[
		{
			"name":"Cube",
			"primitives":[
				{
					"attributes":{
						"POSITION":0,
						"TEXCOORD_0":1,
						"NORMAL":2
					},
					"indices":3,
					"material":0
				}
			]
		},
		{
			"name":"Plane",
			"primitives":[
				{
					"attributes":{
						"POSITION":4,
						"TEXCOORD_0":5,
						"NORMAL":6
					},
					"indices":7,
					"material":1
				}
			]
		},
		{
			"name":"Cube.001",
			"primitives":[
				{
					"attributes":{
						"POSITION":8,
						"TEXCOORD_0":9,
						"NORMAL":10
					},
					"indices":11,
					"material":2
				}
			]
		},
		{
			"name":"Cube.002",
			"primitives":[
				{
					"attributes":{
						"POSITION":12,
						"TEXCOORD_0":13,
						"NORMAL":14
					},
					"indices":11,
					"material":3
				}
			]
		},
		{
			"name":"Cylinder",
			"primitives":[
				{
					"attributes":{
						"POSITION":15,
						"TEXCOORD_0":16,
						"NORMAL":17
					},
					"indices":18,
					"material":4
				}
			]
		},
		{
			"name":"Cylinder.001",
			"primitives":[
				{
					"attributes":{
						"POSITION":19,
						"TEXCOORD_0":20,
						"NORMAL":21
					},
					"indices":18,
					"material":5
				}
			]
		},
		{
			"name":"Plane.001",
			"primitives":[
				{
					"attributes":{
						"POSITION":22,
						"TEXCOORD_0":23,
						"NORMAL":24
					},
					"indices":25
				}
			]
		},
		{
			"name":"Plane.002",
			"primitives":[
				{
					"attributes":{
						"POSITION":26,
						"TEXCOORD_0":27,
						"NORMAL":28
					},
					"indices":29,
					"material":6
				}
			]
		},
		{
			"name":"Plane.003",
			"primitives":[
				{
					"attributes":{
						"POSITION":30,
						"TEXCOORD_0":31,
						"NORMAL":32
					},
					"indices":29,
					"material":7
				}
			]
		},
		{
			"name":"Cube.003",
			"primitives":[
				{
					"attributes":{
						"POSITION":33,
						"TEXCOORD_0":34,
						"NORMAL":35
					},
					"indices":3,
					"material":0
				}
			]
		},
		{
			"name":"Plane.004",
			"primitives":[
				{
					"attributes":{
						"POSITION":36,
						"TEXCOORD_0":37,
						"NORMAL":38
					},
					"indices":7,
					"material":1
				}
			]
		},
		{
			"name":"Cube.004",
			"primitives":[
				{
					"attributes":{
						"POSITION":39,
						"TEXCOORD_0":40,
						"NORMAL":41
					},
					"indices":11,
					"material":2
				}
			]
		},
		{
			"name":"Cube.005",
			"primitives":[
				{
					"attributes":{
						"POSITION":42,
						"TEXCOORD_0":43,
						"NORMAL":44
					},
					"indices":11,
					"material":3
				}
			]
		},
		{
			"name":"Cylinder.002",
			"primitives":[
				{
					"attributes":{
						"POSITION":45,
						"TEXCOORD_0":46,
						"NORMAL":47
					},
					"indices":18,
					"material":4
				}
			]
		},
		{
			"name":"Cylinder.003",
			"primitives":[
				{
					"attributes":{
						"POSITION":48,
						"TEXCOORD_0":49,
						"NORMAL":50
					},
					"indices":18,
					"material":5
				}
			]
		},
		{
			"name":"Plane.005",
			"primitives":[
				{
					"attributes":{
						"POSITION":51,
						"TEXCOORD_0":52,
						"NORMAL":53
					},
					"indices":25
				}
			]
		},
		{
			"name":"Plane.006",
			"primitives":[
				{
					"attributes":{
						"POSITION":54,
						"TEXCOORD_0":55,
						"NORMAL":56
					},
					"indices":29,
					"material":7
				}
			]
		}
	],
	"accessors":[
		{
			"bufferView":0,
			"componentType":5126,
			"count":72,
			"max":[
				3.721217393875122,
				-0.6587538719177246,
				1
			],
			"min":[
				-1,
				-1.1299188137054443,
				-2.4911322593688965
			],
			"type":"VEC3"
		},
		{
			"bufferView":1,
			"componentType":5126,
			"count":72,
			"type":"VEC2"
		},
		{
			"bufferView":2,
			"componentType":5126,
			"count":72,
			"type":"VEC3"
		},
		{
			"bufferView":3,
			"componentType":5123,
			"count":132,
			"type":"SCALAR"
		},
		{
			"bufferView":4,
			"componentType":5126,
			"count":24,
			"max":[
				1,
				0.006311014294624329,
				1
			],
			"min":[
				-1,
				0,
				-1
			],
			"type":"VEC3"
		},
		{
			"bufferView":5,
			"componentType":5126,
			"count":24,
			"type":"VEC2"
		},
		{
			"bufferView":6,
			"componentType":5126,
			"count":24,
			"type":"VEC3"
		},
		{
			"bufferView":7,
			"componentType":5123,
			"count":36,
			"type":"SCALAR"
		},
		{
			"bufferView":8,
			"componentType":5126,
			"count":1176,
			"max":[
				-0.09154072403907776,
				-0.233190655708313,
				0.10605120658874512
			],
			"min":[
				-1,
				-0.437808632850647,
				-0.17651697993278503
			],
			"type":"VEC3"
		},
		{
			"bufferView":9,
			"componentType":5126,
			"count":1176,
			"type":"VEC2"
		},
		{
			"bufferView":10,
			"componentType":5126,
			"count":1176,
			"type":"VEC3"
		},
		{
			"bufferView":11,
			"componentType":5123,
			"count":1764,
			"type":"SCALAR"
		},
		{
			"bufferView":12,
			"componentType":5126,
			"count":1176,
			"max":[
				-0.09154072403907776,
				-0.233190655708313,
				0.10605120658874512
			],
			"min":[
				-1,
				-0.437808632850647,
				-0.17651697993278503
			],
			"type":"VEC3"
		},
		{
			"bufferView":13,
			"componentType":5126,
			"count":1176,
			"type":"VEC2"
		},
		{
			"bufferView":14,
			"componentType":5126,
			"count":1176,
			"type":"VEC3"
		},
		{
			"bufferView":15,
			"componentType":5126,
			"count":192,
			"max":[
				1,
				-0.44715991616249084,
				1
			],
			"min":[
				-1,
				-1,
				-1
			],
			"type":"VEC3"
		},
		{
			"bufferView":16,
			"componentType":5126,
			"count":192,
			"type":"VEC2"
		},
		{
			"bufferView":17,
			"componentType":5126,
			"count":192,
			"type":"VEC3"
		},
		{
			"bufferView":18,
			"componentType":5123,
			"count":372,
			"type":"SCALAR"
		},
		{
			"bufferView":19,
			"componentType":5126,
			"count":192,
			"max":[
				1,
				-0.44715991616249084,
				1
			],
			"min":[
				-1,
				-1,
				-1
			],
			"type":"VEC3"
		},
		{
			"bufferView":20,
			"componentType":5126,
			"count":192,
			"type":"VEC2"
		},
		{
			"bufferView":21,
			"componentType":5126,
			"count":192,
			"type":"VEC3"
		},
		{
			"bufferView":22,
			"componentType":5126,
			"count":24,
			"max":[
				1,
				0.401602178812027,
				1.2117911577224731
			],
			"min":[
				-1,
				0.2040802538394928,
				-0.7882088422775269
			],
			"type":"VEC3"
		},
		{
			"bufferView":23,
			"componentType":5126,
			"count":24,
			"type":"VEC2"
		},
		{
			"bufferView":24,
			"componentType":5126,
			"count":24,
			"type":"VEC3"
		},
		{
			"bufferView":25,
			"componentType":5123,
			"count":36,
			"type":"SCALAR"
		},
		{
			"bufferView":26,
			"componentType":5126,
			"count":4,
			"max":[
				1,
				0,
				1
			],
			"min":[
				-1,
				0,
				-1
			],
			"type":"VEC3"
		},
		{
			"bufferView":27,
			"componentType":5126,
			"count":4,
			"type":"VEC2"
		},
		{
			"bufferView":28,
			"componentType":5126,
			"count":4,
			"type":"VEC3"
		},
		{
			"bufferView":29,
			"componentType":5123,
			"count":6,
			"type":"SCALAR"
		},
		{
			"bufferView":30,
			"componentType":5126,
			"count":4,
			"max":[
				1,
				0,
				1
			],
			"min":[
				-1,
				0,
				-1
			],
			"type":"VEC3"
		},
		{
			"bufferView":31,
			"componentType":5126,
			"count":4,
			"type":"VEC2"
		},
		{
			"bufferView":32,
			"componentType":5126,
			"count":4,
			"type":"VEC3"
		},
		{
			"bufferView":33,
			"componentType":5126,
			"count":72,
			"max":[
				3.721217393875122,
				-0.6587538719177246,
				1
			],
			"min":[
				-1,
				-1.1299188137054443,
				-2.4911322593688965
			],
			"type":"VEC3"
		},
		{
			"bufferView":34,
			"componentType":5126,
			"count":72,
			"type":"VEC2"
		},
		{
			"bufferView":35,
			"componentType":5126,
			"count":72,
			"type":"VEC3"
		},
		{
			"bufferView":36,
			"componentType":5126,
			"count":24,
			"max":[
				1,
				0.006311014294624329,
				1
			],
			"min":[
				-1,
				0,
				-1
			],
			"type":"VEC3"
		},
		{
			"bufferView":37,
			"componentType":5126,
			"count":24,
			"type":"VEC2"
		},
		{
			"bufferView":38,
			"componentType":5126,
			"count":24,
			"type":"VEC3"
		},
		{
			"bufferView":39,
			"componentType":5126,
			"count":1176,
			"max":[
				-0.09154072403907776,
				-0.233190655708313,
				0.10605120658874512
			],
			"min":[
				-1,
				-0.437808632850647,
				-0.17651697993278503
			],
			"type":"VEC3"
		},
		{
			"bufferView":40,
			"componentType":5126,
			"count":1176,
			"type":"VEC2"
		},
		{
			"bufferView":41,
			"componentType":5126,
			"count":1176,
			"type":"VEC3"
		},
		{
			"bufferView":42,
			"componentType":5126,
			"count":1176,
			"max":[
				-0.09154072403907776,
				-0.233190655708313,
				0.10605120658874512
			],
			"min":[
				-1,
				-0.437808632850647,
				-0.17651697993278503
			],
			"type":"VEC3"
		},
		{
			"bufferView":43,
			"componentType":5126,
			"count":1176,
			"type":"VEC2"
		},
		{
			"bufferView":44,
			"componentType":5126,
			"count":1176,
			"type":"VEC3"
		},
		{
			"bufferView":45,
			"componentType":5126,
			"count":192,
			"max":[
				1,
				-0.44715991616249084,
				1
			],
			"min":[
				-1,
				-1,
				-1
			],
			"type":"VEC3"
		},
		{
			"bufferView":46,
			"componentType":5126,
			"count":192,
			"type":"VEC2"
		},
		{
			"bufferView":47,
			"componentType":5126,
			"count":192,
			"type":"VEC3"
		},
		{
			"bufferView":48,
			"componentType":5126,
			"count":192,
			"max":[
				1,
				-0.44715991616249084,
				1
			],
			"min":[
				-1,
				-1,
				-1
			],
			"type":"VEC3"
		},
		{
			"bufferView":49,
			"componentType":5126,
			"count":192,
			"type":"VEC2"
		},
		{
			"bufferView":50,
			"componentType":5126,
			"count":192,
			"type":"VEC3"
		},
		{
			"bufferView":51,
			"componentType":5126,
			"count":24,
			"max":[
				1,
				0.401602178812027,
				1.2117911577224731
			],
			"min":[
				-1,
				0.2040802538394928,
				-0.7882088422775269
			],
			"type":"VEC3"
		},
		{
			"bufferView":52,
			"componentType":5126,
			"count":24,
			"type":"VEC2"
		},
		{
			"bufferView":53,
			"componentType":5126,
			"count":24,
			"type":"VEC3"
		},
		{
			"bufferView":54,
			"componentType":5126,
			"count":4,
			"max":[
				1,
				0,
				1
			],
			"min":[
				-1,
				0,
				-1
			],
			"type":"VEC3"
		},
		{
			"bufferView":55,
			"componentType":5126,
			"count":4,
			"type":"VEC2"
		},
		{
			"bufferView":56,
			"componentType":5126,
			"count":4,
			"type":"VEC3"
		}
	],
	"bufferViews":[
		{
			"buffer":0,
			"byteLength":864,
			"byteOffset":0,
			"target":34962
		},
		{
			"buffer":0,
			"byteLength":576,
			"byteOffset":864,
			"target":34962
		},
		{
			"buffer":0,
			"byteLength":864,
			"byteOffset":1440,
			"target":34962
		},
		{
			"buffer":0,
			"byteLength":264,
			"byteOffset":2304,
			"target":34963
		},
		{
			"buffer":0,
			"byteLength":288,
			"byteOffset":2568,
			"target":34962
		},
		{
			"buffer":0,
			"byteLength":192,
			"byteOffset":2856,
			"target":34962
		},
		{
			"buffer":0,
			"byteLength":288,
			"byteOffset":3048,
			"target":34962
		},
		{
			"buffer":0,
			"byteLength":72,
			"byteOffset":3336,
			"target":34963
		},
		{
			"buffer":0,
			"byteLength":14112,
			"byteOffset":3408,
			"target":34962
		},
		{
			"buffer":0,
			"byteLength":9408,
			"byteOffset":17520,
			"target":34962
		},
		{
			"buffer":0,
			"byteLength":14112,
			"byteOffset":26928,
			"target":34962
		},
		{
			"buffer":0,
			"byteLength":3528,
			"byteOffset":41040,
			"target":34963
		},
		{
			"buffer":0,
			"byteLength":14112,
			"byteOffset":44568,
			"target":34962
		},
		{
			"buffer":0,
			"byteLength":9408,
			"byteOffset":58680,
			"target":34962
		},
		{
			"buffer":0,
			"byteLength":14112,
			"byteOffset":68088,
			"target":34962
		},
		{
			"buffer":0,
			"byteLength":2304,
			"byteOffset":82200,
			"target":34962
		},
		{
			"buffer":0,
			"byteLength":1536,
			"byteOffset":84504,
			"target":34962
		},
		{
			"buffer":0,
			"byteLength":2304,
			"byteOffset":86040,
			"target":34962
		},
		{
			"buffer":0,
			"byteLength":744,
			"byteOffset":88344,
			"target":34963
		},
		{
			"buffer":0,
			"byteLength":2304,
			"byteOffset":89088,
			"target":34962
		},
		{
			"buffer":0,
			"byteLength":1536,
			"byteOffset":91392,
			"target":34962
		},
		{
			"buffer":0,
			"byteLength":2304,
			"byteOffset":92928,
			"target":34962
		},
		{
			"buffer":0,
			"byteLength":288,
			"byteOffset":95232,
			"target":34962
		},
		{
			"buffer":0,
			"byteLength":192,
			"byteOffset":95520,
			"target":34962
		},
		{
			"buffer":0,
			"byteLength":288,
			"byteOffset":95712,
			"target":34962
		},
		{
			"buffer":0,
			"byteLength":72,
			"byteOffset":96000,
			"target":34963
		},
		{
			"buffer":0,
			"byteLength":48,
			"byteOffset":96072,
			"target":34962
		},
		{
			"buffer":0,
			"byteLength":32,
			"byteOffset":96120,
			"target":34962
		},
		{
			"buffer":0,
			"byteLength":48,
			"byteOffset":96152,
			"target":34962
		},
		{
			"buffer":0,
			"byteLength":12,
			"byteOffset":96200,
			"target":34963
		},
		{
			"buffer":0,
			"byteLength":48,
			"byteOffset":96212,
			"target":34962
		},
		{
			"buffer":0,
			"byteLength":32,
			"byteOffset":96260,
			"target":34962
		},
		{
			"buffer":0,
			"byteLength":48,
			"byteOffset":96292,
			"target":34962
		},
		{
			"buffer":0,
			"byteLength":864,
			"byteOffset":96340,
			"target":34962
		},
		{
			"buffer":0,
			"byteLength":576,
			"byteOffset":97204,
			"target":34962
		},
		{
			"buffer":0,
			"byteLength":864,
			"byteOffset":97780,
			"target":34962
		},
		{
			"buffer":0,
			"byteLength":288,
			"byteOffset":98644,
			"target":34962
		},
		{
			"buffer":0,
			"byteLength":192,
			"byteOffset":98932,
			"target":34962
		},
		{
			"buffer":0,
			"byteLength":288,
			"byteOffset":99124,
			"target":34962
		},
		{
			"buffer":0,
			"byteLength":14112,
			"byteOffset":99412,
			"target":34962
		},
		{
			"buffer":0,
			"byteLength":9408,
			"byteOffset":113524,
			"target":34962
		},
		{
			"buffer":0,
			"byteLength":14112,
			"byteOffset":122932,
			"target":34962
		},
		{
			"buffer":0,
			"byteLength":14112,
			"byteOffset":137044,
			"target":34962
		},
		{
			"buffer":0,
			"byteLength":9408,
			"byteOffset":151156,
			"target":34962
		},
		{
			"buffer":0,
			"byteLength":14112,
			"byteOffset":160564,
			"target":34962
		},
		{
			"buffer":0,
			"byteLength":2304,
			"byteOffset":174676,
			"target":34962
		},
		{
			"buffer":0,
			"byteLength":1536,
			"byteOffset":176980,
			"target":34962
		},
		{
			"buffer":0,
			"byteLength":2304,
			"byteOffset":178516,
			"target":34962
		},
		{
			"buffer":0,
			"byteLength":2304,
			"byteOffset":180820,
			"target":34962
		},
		{
			"buffer":0,
			"byteLength":1536,
			"byteOffset":183124,
			"target":34962
		},
		{
			"buffer":0,
			"byteLength":2304,
			"byteOffset":184660,
			"target":34962
		},
		{
			"buffer":0,
			"byteLength":288,
			"byteOffset":186964,
			"target":34962
		},
		{
			"buffer":0,
			"byteLength":192,
			"byteOffset":187252,
			"target":34962
		},
		{
			"buffer":0,
			"byteLength":288,
			"byteOffset":187444,
			"target":34962
		},
		{
			"buffer":0,
			"byteLength":48,
			"byteOffset":187732,
			"target":34962
		},
		{
			"buffer":0,
			"byteLength":32,
			"byteOffset":187780,
			"target":34962
		},
		{
			"buffer":0,
			"byteLength":48,
			"byteOffset":187812,
			"target":34962
		}
	],
	"buffers":[
		{
			"byteLength":187860,
			"uri":"data:application/octet-stream;base64,"
		}
	]
}
